<svg xmlns="http://www.w3.org/2000/svg" width="81" height="152" fill="none"><path fill="#F14B89" d="M36.118 15.454c-.928-.88-2.078-1.421-3.322-1.763-1.567 1.329-3.33 2.301-5.247 3.182.145.067.28.133.434.194-.034 2.07-1.584 4.125-3.484 5.19-2.36 1.328-5.136 1.621-7.735 2.4-3.185.955-4.77 4.208-4.361 7.38.588 4.446 4.506 6.648 8.714 6.789 4.43.148 8.902-1.551 12.13-4.609 3.23-3.058 5.154-7.435 5.24-11.878.05-2.5-.554-5.168-2.369-6.884Z"></path><path fill="#F14B89" d="M27.948 21.722a6.589 6.589 0 0 0 9.311 0 6.587 6.587 0 0 0 0-9.307 6.588 6.588 0 0 0-9.31 0 6.587 6.587 0 0 0 0 9.307Z"></path><path fill="#FFDBAC" d="M25.782 18.08a5.692 5.692 0 0 0 5.701 5.692c1.243 0 2.4-.402 3.336-1.087a5.666 5.666 0 0 0 2.35-4.605 5.69 5.69 0 0 0-6.051-5.684 5.692 5.692 0 0 0-5.336 5.684Z"></path><path fill="#F14B89" d="M29.811 11.806c.588-.034 1.235-.157 1.883-.302.247.126.545.201.903.201.23 0 .443-.033.63-.09l2.377 1.626a5.678 5.678 0 0 1 1.04 9.226c-.257.283.272 1.14-.035 1.367l-3.084-8.036-3.552-3.484c-.128-.157.46.408.366.23l-.528-.739Z"></path><path fill="#FFDBAC" d="m38.09 17.294-.06 13.518-7.271.167.144-9.11 7.188-4.575Z"></path><path fill="#EF9DD3" d="M32.94 17.772c0 1.112.902 2.014 2.009 2.014a2.02 2.02 0 0 0 2.016-2.014 2.02 2.02 0 0 0-2.016-2.013 2.013 2.013 0 0 0-2.008 2.013Z"></path><path fill="#F14B89" d="M38.237 23.107c-1.108-1.835-3.196-2.827-5.216-3.56-2.02-.732-5.26-1.344-6.879-2.751-1.057-.914-1.875-2.28-1.645-3.655.23-1.309 1.407-2.336 2.72-2.576 1.303-.241 3.775-.328 4.815.487.665.517 1.22 1.713 1.875 2.23 1.518 1.174 3.657 1.73 4.484 3.457 1.014 2.13-.622 4.706 0 6.985l-.154-.617Z"></path><path fill="#FFDBAC" d="M39.41 151.518a.475.475 0 0 0 .475.482h9.017c.284 0 .543-.117.724-.3.181-.182.294-.432.294-.715 0-.474-.328-1.347-.794-1.447l-3.546-.69c.095-.017.043-.117-.035-.2-.069-.075-.155-.15-.155-.15l.086-.682c.06-.307.121-.623.173-.939 2.692-14.248 10.716-32.145 8.723-55.108-.233-2.728-.656-16.002-5.98-6.38-.19.333-.647-.407-.949-.624l-.172-.116c-.043-.025-.104-.041-.181-.075-.768-.332-1.536-.657-2.339-.915.035.025-.957-.233-1.035-.24a21.99 21.99 0 0 0-1.794-.225 19.706 19.706 0 0 0-1.2-.083.97.97 0 0 0-1.026.99c.051 3.443.12 6.902.172 10.37.035 1.614.07 3.219.095 4.832.086 4.458.138 8.925.181 13.374.035 4.168.035 10.147-.017 14.289-.035 3.16-.086 6.312-.181 9.448-.07 2.113-.285 8.317-.432 12.234-.043 1.273-.077 2.304-.103 2.87Z"></path><path fill="#672278" d="M39.422 151.517a.47.47 0 0 0 .472.483h9.018a1.014 1.014 0 0 0 1.013-1.015c0-.474-.326-1.347-.79-1.447l-3.547-.691c.094-.016.034-.116-.034-.199h-6.03c-.042 1.273-.077 2.304-.102 2.869Z"></path><path fill="#FFDBAC" d="M19.744 151.517a.46.46 0 0 0 .458.483h9.022a1.018 1.018 0 0 0 1.02-1.015c0-.474-.332-1.348-.8-1.447l-3.55-.691c.11-.016.042-.116-.034-.199a2.236 2.236 0 0 0-.153-.15l.085-.682c.06-.307.119-.624.178-.94 1.597-8.4 3.407-16.75 4.91-25.175a408.239 408.239 0 0 0 1.487-9.024c.093-.532.17-1.064.246-1.605.264-1.822.527-3.643.748-5.473l.05-.349c.128-1.006.239-2.005.349-3.003.025-.224.05-.449.068-.665.127-1.147.246-2.295.348-3.444.119-1.264.221-2.528.297-3.791.026-.35.043-2.072.068-2.43.017-.199.026-.398.043-.607l.076-.124v-2.354c-.085-.058-.093-.058-.178-.117-.518.2-.195-.24-.145-.457-1.86-1.439-3.686-1.53-5.631-2.87-.306-.215-.638-.406-.952-.623l-.161-.116c-.051-.026-.11-.042-.187-.075-.773-.333-1.538-.657-2.336-.915.034.025-.952-.233-1.037-.241-.594-.1-1.189-.175-1.8-.225-.391-.04-.79-.066-1.198-.082a.974.974 0 0 0-1.02.99c.051 3.442.12 6.902.179 10.37.025 1.614.06 3.219.093 4.832.077 4.458.145 8.925.179 13.374.034 4.167.034 10.147-.017 14.288a435.407 435.407 0 0 1-.187 9.449c-.068 2.112-.28 8.317-.425 12.234a136.437 136.437 0 0 0-.093 2.869Z"></path><path fill="#672278" d="M19.733 151.518a.466.466 0 0 0 .465.482h9.018a1.018 1.018 0 0 0 1.025-1.015c0-.474-.33-1.347-.796-1.447l-3.556-.69c.11-.017.042-.117-.034-.2h-6.02c-.051 1.273-.085 2.304-.102 2.87Z"></path><path fill="#4B92D5" d="M62.08 12.983c-1.889-1.725-2.34-4.792-1.031-6.985l.659.395c-1.118 1.89-.737 4.534.892 6.02l-.52.57Z"></path><path fill="#E8EAF7" d="M74.476 19.59v32.382c0 4.042-4.387 6.563-7.873 4.533L35.91 38.709l1.94-3.299c3.085-5.235 10.024-6.624 14.883-2.981l13.519 10.137 1.424-9.727 1.372-9.333.63-4.267a2.418 2.418 0 0 1 3.19-1.925c.489.17.882.487 1.17.88.28.395.437.882.437 1.396ZM20.133 71.858a3.367 3.367 0 0 1-.127 3.534c-.753 1.107-1.548.558-2.86.3a3.352 3.352 0 0 1-2.004-1.273l-2.098-2.786L2.689 59.465l-1.556-1.83c-1.582-2.112-1.506-5.114.22-7.136l.042-.05 15.718-16.582c1.176.317 2.326.656 3.477 1.033.998.323 1.98.674 2.927 1.095.28.115.558.246.82.372.094.066.703.41.813.492.372.279.753.591 1.15.843.085.055.144.087.195.121l.144.152c.71.782 1.387 1.57 1.996 2.451.102.143.17.23.212.285a.666.666 0 0 0 .093.18L11.86 55.714c-.406.35-.5.949-.237 1.405l1.353 2.346 5.558 9.623 1.6 2.77Z"></path><path fill="#FFDBAC" d="M20.008 75.392c-.757 1.106-1.547.557-2.86.3a3.367 3.367 0 0 1-2.009-1.273l-2.094-2.786L2.693 59.465h10.285l5.559 9.622 1.597 2.77a3.384 3.384 0 0 1-.126 3.535Z"></path><path fill="#E8EAF7" d="m50.29 40.476 3.851-2.48a10.991 10.991 0 0 0-10.87-8.052h-.078l-.819.025c-.844 3.662-4.109 6.393-8.028 6.393-3.73 0-6.874-2.484-7.882-5.889l-1.37.043-.405.009a10.998 10.998 0 0 0-8.898 5.034L8.64 46.65l11.362 2.637v26.157h34.13L51.29 49.685l-1-9.209Z"></path><path fill="#FFDBAC" d="M34.344 36.362c3.921 0 7.193-2.73 8.03-6.393l-15.914.504c1.008 3.404 4.152 5.89 7.884 5.89Z"></path><path fill="#5E71C0" d="m19.75 59.1.233 49.818 35.14-.474 2.359-25.258a41.805 41.805 0 0 0-2.816-19.371l-2.816-7.061-32.006 2.462-.095-.116Z"></path><path fill="#FFDBAC" d="M74.476 19.59v13.25h-6.799l1.372-9.334.63-4.267a2.418 2.418 0 0 1 3.19-1.925c.489.17.882.487 1.17.88.28.395.437.882.437 1.396Z"></path><path fill="#4B92D5" d="M61.971 1.863c-3.664 2.185-4.853 6.933-2.676 10.585 2.187 3.654 6.936 4.85 10.592 2.665 3.647-2.183 4.845-6.932 2.658-10.585C70.368.876 65.618-.32 61.971 1.863Zm8.31 13.912c-4.024 2.403-9.245 1.088-11.642-2.93-2.405-4.018-1.084-9.241 2.93-11.644C65.584-1.2 70.805.114 73.21 4.132c2.405 4.019 1.093 9.242-2.93 11.643Z"></path><path fill="#4B92D5" d="m80.32 31.808-.668.396-9.898-16.562.667-.396 9.898 16.562Z"></path></svg>