<svg width="859" height="594" viewBox="0 0 859 594" xmlns="http://www.w3.org/2000/svg" xmlns:xlink="http://www.w3.org/1999/xlink"><title>Confetti@2x</title><defs><path id="a" d="M0 0h859v594H0z"/></defs><g fill="none" fill-rule="evenodd" opacity=".05"><mask id="b" fill="#fff"><use xlink:href="#a"/></mask><use fill="#FFF" xlink:href="#a"/><circle fill="#464A55" fill-rule="nonzero" opacity=".9" mask="url(#b)" transform="rotate(168 747.498 441.58)" cx="747.498" cy="441.579" r="7.5"/><circle fill="#464A55" fill-rule="nonzero" opacity=".84" mask="url(#b)" transform="rotate(125 695.69 279.734)" cx="695.69" cy="279.734" r="7"/><circle fill="#464A55" fill-rule="nonzero" opacity=".87" mask="url(#b)" transform="rotate(-40 746.625 213.673)" cx="746.625" cy="213.673" r="7"/><circle fill="#464A55" fill-rule="nonzero" opacity=".72" mask="url(#b)" transform="rotate(69 652.7 140.916)" cx="652.699" cy="140.916" r="8.5"/><circle fill="#464A55" fill-rule="nonzero" opacity=".94" mask="url(#b)" transform="rotate(-115 465.442 320.274)" cx="465.442" cy="320.274" r="8"/><circle fill="#464A55" fill-rule="nonzero" opacity=".76" mask="url(#b)" transform="rotate(81 461.415 79.634)" cx="461.415" cy="79.634" r="7.5"/><circle fill="#464A55" fill-rule="nonzero" opacity=".82" mask="url(#b)" transform="rotate(150 358.358 571.384)" cx="358.358" cy="571.384" r="6"/><circle fill="#464A55" fill-rule="nonzero" opacity=".73" mask="url(#b)" transform="rotate(-157 388.2 437.403)" cx="388.201" cy="437.403" r="8.5"/><circle fill="#464A55" fill-rule="nonzero" opacity=".88" mask="url(#b)" transform="rotate(45 378.168 217.697)" cx="378.168" cy="217.697" r="7.5"/><circle fill="#464A55" fill-rule="nonzero" opacity=".99" mask="url(#b)" transform="rotate(140 317.46 278.762)" cx="317.459" cy="278.762" r="5.5"/><circle fill="#464A55" fill-rule="nonzero" opacity=".97" mask="url(#b)" transform="rotate(160 126.704 315.605)" cx="126.704" cy="315.605" r="6"/><circle fill="#464A55" fill-rule="nonzero" opacity=".8" mask="url(#b)" transform="rotate(155 48.742 559.958)" cx="48.742" cy="559.958" r="7"/><path fill="#464A55" fill-rule="nonzero" opacity=".74" mask="url(#b)" transform="rotate(89 834.64 195.217)" d="M830.97 188.717l-2.83 13 13-4.122"/><path fill="#464A55" fill-rule="nonzero" opacity=".89" mask="url(#b)" transform="rotate(-35 551.92 413.15)" d="M547.97 406.15l-3.05 14 14-4.44"/><path fill="#464A55" fill-rule="nonzero" opacity=".8" mask="url(#b)" transform="rotate(-21 543.32 268.565)" d="M539.37 261.565l-3.05 14 14-4.44"/><path fill="#464A55" fill-rule="nonzero" opacity=".86" mask="url(#b)" transform="rotate(87 558.133 175.044)" d="M553.617 167.044l-3.484 16 16-5.074"/><path fill="#464A55" fill-rule="nonzero" opacity=".89" mask="url(#b)" transform="rotate(31 525.143 25.825)" d="M520.345 17.325l-3.702 17 17-5.39"/><path fill="#464A55" fill-rule="nonzero" opacity=".78" mask="url(#b)" transform="rotate(19 490.436 528.573)" d="M486.767 522.073l-2.83 13 13-4.123"/><path fill="#464A55" fill-rule="nonzero" opacity=".92" mask="url(#b)" transform="rotate(-122 332.322 185.628)" d="M326.96 176.128l-4.138 19 19-6.025"/><path fill="#464A55" fill-rule="nonzero" opacity=".84" mask="url(#b)" transform="rotate(-8 228.95 561.096)" d="M225.563 555.096l-2.613 12 12-3.805"/><path fill="#464A55" fill-rule="nonzero" opacity=".88" mask="url(#b)" transform="rotate(-39 229 64.103)" d="M223.92 55.103l-3.92 18 18-5.708"/><path fill="#464A55" fill-rule="nonzero" opacity=".73" mask="url(#b)" transform="rotate(-89 38.266 57.75)" d="M34.597 51.25l-2.83 13 13-4.122"/><path fill="#464A55" fill-rule="nonzero" opacity=".9" mask="url(#b)" transform="rotate(178 816.068 577.87)" d="M803.36 555.87l31.708 39.575-6.292 4.426-31.708-39.57"/><path fill="#464A55" fill-rule="nonzero" opacity=".84" mask="url(#b)" transform="rotate(151 773.02 47.517)" d="M754.96 16.017l45.06 56.662-8.942 6.33-45.06-56.67"/><path fill="#464A55" fill-rule="nonzero" opacity=".87" mask="url(#b)" transform="rotate(157 671.264 395.492)" d="M659.56 374.992l29.204 36.876-5.795 4.124-29.21-36.875"/><path fill="#464A55" fill-rule="nonzero" opacity=".77" mask="url(#b)" transform="rotate(123 406.263 355.852)" d="M393.89 334.352l30.873 38.675-6.126 4.325-30.874-38.674"/><path fill="#464A55" fill-rule="nonzero" opacity=".71" mask="url(#b)" transform="rotate(-47 405.886 65.306)" d="M390.836 38.806l37.55 47.67-7.45 5.33-37.55-47.668"/><path fill="#464A55" fill-rule="nonzero" opacity=".85" mask="url(#b)" transform="rotate(47 288.428 437.155)" d="M270.703 406.155l44.225 55.763-8.775 6.237-44.225-55.762"/><path fill="#464A55" fill-rule="nonzero" opacity=".74" mask="url(#b)" transform="rotate(73 334.427 95.887)" d="M317.37 65.887l42.557 53.964-8.444 6.04-42.556-53.96"/><path fill="#464A55" fill-rule="nonzero" opacity=".9" mask="url(#b)" transform="rotate(-174 202.055 408.723)" d="M183.996 376.723l45.06 57.562-8.942 6.438-45.06-57.56"/><path fill="#464A55" fill-rule="nonzero" opacity=".7" mask="url(#b)" transform="rotate(-81 157.284 542.286)" d="M141.232 513.786l40.052 51.266-7.947 5.734-40.053-51.266"/><path fill="#464A55" fill-rule="nonzero" opacity=".81" mask="url(#b)" transform="rotate(-165 122.302 438.53)" d="M106.584 411.03l39.218 49.466-7.782 5.533-39.218-49.47"/><path fill="#464A55" fill-rule="nonzero" opacity=".88" mask="url(#b)" transform="rotate(9 128.037 63.402)" d="M115.997 42.402l30.04 37.775-5.96 4.225-30.04-37.775"/><path fill="#464A55" fill-rule="nonzero" opacity=".76" mask="url(#b)" transform="rotate(-66 36.03 312.887)" d="M23.992 291.887l30.04 37.775-5.96 4.225-30.04-37.775"/><path d="M855.307 18.215c-14.65-4.99-17.478 13.197-17.478 13.197l8.76 12.892s2.83-18.196 17.48-13.2c14.64 4.988 19.07 4.997 21.75-8.912l-8.76-12.888c-2.69 13.91-7.12 13.9-21.76 8.91z" fill="#464A55" fill-rule="nonzero" opacity=".75" mask="url(#b)" transform="rotate(-83 861.83 26.804)"/><path d="M620.683 551.87c-13.735-4.705-16.387 12.443-16.387 12.443l8.217 12.155s2.652-17.156 16.386-12.447c13.73 4.71 17.88 4.72 20.39-8.4l-8.22-12.15c-2.52 13.12-6.68 13.11-20.4 8.4z" fill="#464A55" fill-rule="nonzero" opacity=".88" mask="url(#b)" transform="rotate(38 626.796 559.968)"/><path d="M497.89 434.025c-13.736-4.562-16.388 12.066-16.388 12.066l8.217 11.79s2.65-16.63 16.38-12.07c13.73 4.56 17.88 4.57 20.39-8.14l-8.22-11.78c-2.518 12.72-6.67 12.71-20.398 8.15z" fill="#464A55" fill-rule="nonzero" opacity=".83" mask="url(#b)" transform="rotate(164 504.002 441.878)"/><path d="M492.355 144.534c-10.682-3.564-12.745 9.427-12.745 9.427l6.39 9.21s2.064-12.99 12.746-9.43c10.68 3.57 13.907 3.57 15.864-6.36l-6.39-9.2c-1.958 9.94-5.19 9.93-15.865 6.37z" fill="#464A55" fill-rule="nonzero" opacity=".82" mask="url(#b)" transform="rotate(22 497.11 150.67)"/><path d="M297.57 490.89c-14.343-4.847-17.113 12.82-17.113 12.82l8.58 12.523s2.77-17.676 17.116-12.824c14.34 4.84 18.675 4.85 21.304-8.66l-8.582-12.52c-2.63 13.51-6.968 13.5-21.304 8.65z" fill="#464A55" fill-rule="nonzero" opacity=".75" mask="url(#b)" transform="rotate(117 303.957 499.233)"/><path d="M249.31 297.136c-10.682-3.564-12.745 9.427-12.745 9.427l6.39 9.208s2.063-12.99 12.746-9.43c10.68 3.57 13.91 3.58 15.87-6.36l-6.39-9.2c-1.96 9.94-5.19 9.93-15.86 6.37z" fill="#464A55" fill-rule="nonzero" opacity=".81" mask="url(#b)" transform="rotate(-24 254.065 303.27)"/><path d="M201.626 144.553c-9.462-3.137-11.288 8.295-11.288 8.295l5.66 8.104s1.827-11.438 11.288-8.3c9.46 3.138 12.318 3.143 14.052-5.6l-5.66-8.1c-1.735 8.743-4.597 8.737-14.052 5.6z" fill="#464A55" fill-rule="nonzero" opacity=".91" mask="url(#b)" transform="rotate(121 205.838 149.952)"/><path d="M67.25 430.66c-12.514-4.135-14.93 10.933-14.93 10.933l7.486 10.682s2.417-15.076 14.93-10.938c12.51 4.134 16.29 4.142 18.584-7.383l-7.486-10.68c-2.293 11.526-6.08 11.52-18.584 7.385z" fill="#464A55" fill-rule="nonzero" opacity=".97" mask="url(#b)" transform="rotate(-23 72.82 437.775)"/><path fill="#464A55" fill-rule="nonzero" opacity=".85" mask="url(#b)" transform="rotate(4 806.556 398.396)" d="M807.76 406.396l-9.204-6.797 6.795-9.21 9.21 6.79"/><path fill="#464A55" fill-rule="nonzero" opacity=".87" mask="url(#b)" transform="rotate(-133 791.645 304.31)" d="M793.152 314.31l-11.507-8.496 8.493-11.504 11.507 8.497"/><path fill="#464A55" fill-rule="nonzero" opacity=".99" mask="url(#b)" transform="rotate(-163 705.25 509.54)" d="M706.906 520.54l-12.657-9.346 9.34-12.654 12.66 9.346"/><path fill="#464A55" fill-rule="nonzero" opacity=".88" mask="url(#b)" transform="rotate(-177 674.404 255.623)" d="M676.06 266.623l-12.656-9.346 9.342-12.654 12.658 9.346"/><path fill="#464A55" fill-rule="nonzero" opacity=".94" mask="url(#b)" transform="rotate(13 673.455 105.28)" d="M675.113 116.28l-12.658-9.345 9.343-12.654 12.657 9.35"/><path fill="#464A55" fill-rule="nonzero" opacity=".96" mask="url(#b)" transform="rotate(10 545.575 535.21)" d="M546.93 544.21l-10.355-7.647 7.644-10.353 10.35 7.647"/><path fill="#464A55" fill-rule="nonzero" opacity=".88" mask="url(#b)" transform="rotate(-117 119.89 158.345)" d="M121.172 166.845l-9.78-7.22 7.22-9.78 9.78 7.222"/><path fill="#464A55" fill-rule="nonzero" opacity=".73" mask="url(#b)" transform="rotate(37 68.448 157.81)" d="M69.88 167.31l-10.932-8.07 8.07-10.93 10.93 8.072"/></g></svg>